<?xml version="1.0" encoding="UTF-8" standalone="no"?>
<!DOCTYPE svg PUBLIC "-//W3C//DTD SVG 1.1//EN"
 "http://www.w3.org/Graphics/SVG/1.1/DTD/svg11.dtd">
<!-- Generated by graphviz version 12.2.1 (20250203.1708)
 -->
<!-- Title: snakemake_dag Pages: 1 -->
<svg width="993pt" height="1268pt"
 viewBox="0.00 0.00 992.84 1268.00" xmlns="http://www.w3.org/2000/svg" xmlns:xlink="http://www.w3.org/1999/xlink">
<g id="graph0" class="graph" transform="scale(1 1) rotate(0) translate(4 1264)">
<title>snakemake_dag</title>
<polygon fill="white" stroke="none" points="-4,4 -4,-1264 988.84,-1264 988.84,4 -4,4"/>
<!-- 0 -->
<g id="node1" class="node">
<title>0</title>
<path fill="none" stroke="#80d856" stroke-width="2" d="M534.97,-36C534.97,-36 468.72,-36 468.72,-36 462.72,-36 456.72,-30 456.72,-24 456.72,-24 456.72,-12 456.72,-12 456.72,-6 462.72,0 468.72,0 468.72,0 534.97,0 534.97,0 540.97,0 546.97,-6 546.97,-12 546.97,-12 546.97,-24 546.97,-24 546.97,-30 540.97,-36 534.97,-36"/>
<text text-anchor="middle" x="501.84" y="-14.88" font-family="sans" font-size="10.00">called_variants</text>
</g>
<!-- 1 -->
<g id="node2" class="node">
<title>1</title>
<path fill="none" stroke="#d87556" stroke-width="2" d="M548.47,-108C548.47,-108 455.22,-108 455.22,-108 449.22,-108 443.22,-102 443.22,-96 443.22,-96 443.22,-84 443.22,-84 443.22,-78 449.22,-72 455.22,-72 455.22,-72 548.47,-72 548.47,-72 554.47,-72 560.47,-78 560.47,-84 560.47,-84 560.47,-96 560.47,-96 560.47,-102 554.47,-108 548.47,-108"/>
<text text-anchor="middle" x="501.84" y="-86.88" font-family="sans" font-size="10.00">ex_call_somatic_snv</text>
</g>
<!-- 1&#45;&gt;0 -->
<g id="edge1" class="edge">
<title>1&#45;&gt;0</title>
<path fill="none" stroke="grey" stroke-width="2" d="M501.84,-71.34C501.84,-64.75 501.84,-57.08 501.84,-49.67"/>
<polygon fill="grey" stroke="grey" stroke-width="2" points="505.34,-49.93 501.84,-39.93 498.34,-49.93 505.34,-49.93"/>
</g>
<!-- 2 -->
<g id="node3" class="node">
<title>2</title>
<path fill="none" stroke="#5663d8" stroke-width="2" d="M495.59,-180C495.59,-180 442.09,-180 442.09,-180 436.09,-180 430.09,-174 430.09,-168 430.09,-168 430.09,-156 430.09,-156 430.09,-150 436.09,-144 442.09,-144 442.09,-144 495.59,-144 495.59,-144 501.59,-144 507.59,-150 507.59,-156 507.59,-156 507.59,-168 507.59,-168 507.59,-174 501.59,-180 495.59,-180"/>
<text text-anchor="middle" x="468.84" y="-158.88" font-family="sans" font-size="10.00">ex_filter_dsc</text>
</g>
<!-- 2&#45;&gt;1 -->
<g id="edge3" class="edge">
<title>2&#45;&gt;1</title>
<path fill="none" stroke="grey" stroke-width="2" d="M477.17,-143.34C480.43,-136.43 484.25,-128.31 487.91,-120.56"/>
<polygon fill="grey" stroke="grey" stroke-width="2" points="491.01,-122.18 492.11,-111.64 484.68,-119.19 491.01,-122.18"/>
</g>
<!-- 3 -->
<g id="node4" class="node">
<title>3</title>
<path fill="none" stroke="#5673d8" stroke-width="2" d="M309.09,-252C309.09,-252 234.59,-252 234.59,-252 228.59,-252 222.59,-246 222.59,-240 222.59,-240 222.59,-228 222.59,-228 222.59,-222 228.59,-216 234.59,-216 234.59,-216 309.09,-216 309.09,-216 315.09,-216 321.09,-222 321.09,-228 321.09,-228 321.09,-240 321.09,-240 321.09,-246 315.09,-252 309.09,-252"/>
<text text-anchor="middle" x="271.84" y="-230.88" font-family="sans" font-size="10.00">ex_annotate_dsc</text>
</g>
<!-- 3&#45;&gt;2 -->
<g id="edge4" class="edge">
<title>3&#45;&gt;2</title>
<path fill="none" stroke="grey" stroke-width="2" d="M322.06,-215.15C351.19,-204.81 387.8,-191.8 417.17,-181.36"/>
<polygon fill="grey" stroke="grey" stroke-width="2" points="418.16,-184.72 426.42,-178.08 415.82,-178.13 418.16,-184.72"/>
</g>
<!-- 4 -->
<g id="node5" class="node">
<title>4</title>
<path fill="none" stroke="#56d8b1" stroke-width="2" d="M304.22,-324C304.22,-324 239.47,-324 239.47,-324 233.47,-324 227.47,-318 227.47,-312 227.47,-312 227.47,-300 227.47,-300 227.47,-294 233.47,-288 239.47,-288 239.47,-288 304.22,-288 304.22,-288 310.22,-288 316.22,-294 316.22,-300 316.22,-300 316.22,-312 316.22,-312 316.22,-318 310.22,-324 304.22,-324"/>
<text text-anchor="middle" x="271.84" y="-302.88" font-family="sans" font-size="10.00">ex_realign_dsc</text>
</g>
<!-- 4&#45;&gt;3 -->
<g id="edge6" class="edge">
<title>4&#45;&gt;3</title>
<path fill="none" stroke="grey" stroke-width="2" d="M271.84,-287.34C271.84,-280.75 271.84,-273.08 271.84,-265.67"/>
<polygon fill="grey" stroke="grey" stroke-width="2" points="275.34,-265.93 271.84,-255.93 268.34,-265.93 275.34,-265.93"/>
</g>
<!-- 5 -->
<g id="node6" class="node">
<title>5</title>
<path fill="none" stroke="#56c1d8" stroke-width="2" d="M223.97,-396C223.97,-396 175.72,-396 175.72,-396 169.72,-396 163.72,-390 163.72,-384 163.72,-384 163.72,-372 163.72,-372 163.72,-366 169.72,-360 175.72,-360 175.72,-360 223.97,-360 223.97,-360 229.97,-360 235.97,-366 235.97,-372 235.97,-372 235.97,-384 235.97,-384 235.97,-390 229.97,-396 223.97,-396"/>
<text text-anchor="middle" x="199.84" y="-374.88" font-family="sans" font-size="10.00">ex_call_dsc</text>
</g>
<!-- 5&#45;&gt;3 -->
<g id="edge7" class="edge">
<title>5&#45;&gt;3</title>
<path fill="none" stroke="grey" stroke-width="2" d="M200.67,-359.26C202.2,-340.52 206.54,-310.63 218.84,-288 224.05,-278.41 231.54,-269.41 239.25,-261.65"/>
<polygon fill="grey" stroke="grey" stroke-width="2" points="241.54,-264.31 246.43,-254.91 236.74,-259.21 241.54,-264.31"/>
</g>
<!-- 5&#45;&gt;4 -->
<g id="edge10" class="edge">
<title>5&#45;&gt;4</title>
<path fill="none" stroke="grey" stroke-width="2" d="M218.01,-359.34C225.96,-351.6 235.47,-342.36 244.27,-333.81"/>
<polygon fill="grey" stroke="grey" stroke-width="2" points="246.53,-336.49 251.26,-327.01 241.65,-331.47 246.53,-336.49"/>
</g>
<!-- 6 -->
<g id="node7" class="node">
<title>6</title>
<path fill="none" stroke="#56d89a" stroke-width="2" d="M233.97,-468C233.97,-468 155.72,-468 155.72,-468 149.72,-468 143.72,-462 143.72,-456 143.72,-456 143.72,-444 143.72,-444 143.72,-438 149.72,-432 155.72,-432 155.72,-432 233.97,-432 233.97,-432 239.97,-432 245.97,-438 245.97,-444 245.97,-444 245.97,-456 245.97,-456 245.97,-462 239.97,-468 233.97,-468"/>
<text text-anchor="middle" x="194.84" y="-446.88" font-family="sans" font-size="10.00">ex_group_by_umi</text>
</g>
<!-- 6&#45;&gt;5 -->
<g id="edge11" class="edge">
<title>6&#45;&gt;5</title>
<path fill="none" stroke="grey" stroke-width="2" d="M196.1,-431.34C196.57,-424.75 197.12,-417.08 197.65,-409.67"/>
<polygon fill="grey" stroke="grey" stroke-width="2" points="201.13,-410.15 198.35,-399.92 194.14,-409.65 201.13,-410.15"/>
</g>
<!-- 7 -->
<g id="node8" class="node">
<title>7</title>
<path fill="none" stroke="#56d88a" stroke-width="2" d="M237.97,-540C237.97,-540 117.72,-540 117.72,-540 111.72,-540 105.72,-534 105.72,-528 105.72,-528 105.72,-516 105.72,-516 105.72,-510 111.72,-504 117.72,-504 117.72,-504 237.97,-504 237.97,-504 243.97,-504 249.97,-510 249.97,-516 249.97,-516 249.97,-528 249.97,-528 249.97,-534 243.97,-540 237.97,-540"/>
<text text-anchor="middle" x="177.84" y="-518.88" font-family="sans" font-size="10.00">ex_add_mate_information</text>
</g>
<!-- 7&#45;&gt;6 -->
<g id="edge12" class="edge">
<title>7&#45;&gt;6</title>
<path fill="none" stroke="grey" stroke-width="2" d="M182.13,-503.34C183.75,-496.67 185.64,-488.89 187.46,-481.39"/>
<polygon fill="grey" stroke="grey" stroke-width="2" points="190.82,-482.39 189.78,-471.84 184.02,-480.73 190.82,-482.39"/>
</g>
<!-- 8 -->
<g id="node9" class="node">
<title>8</title>
<path fill="none" stroke="#566bd8" stroke-width="2" d="M224.09,-612C224.09,-612 131.59,-612 131.59,-612 125.59,-612 119.59,-606 119.59,-600 119.59,-600 119.59,-588 119.59,-588 119.59,-582 125.59,-576 131.59,-576 131.59,-576 224.09,-576 224.09,-576 230.09,-576 236.09,-582 236.09,-588 236.09,-588 236.09,-600 236.09,-600 236.09,-606 230.09,-612 224.09,-612"/>
<text text-anchor="middle" x="177.84" y="-590.88" font-family="sans" font-size="10.00">ex_add_read_groups</text>
</g>
<!-- 8&#45;&gt;7 -->
<g id="edge13" class="edge">
<title>8&#45;&gt;7</title>
<path fill="none" stroke="grey" stroke-width="2" d="M177.84,-575.34C177.84,-568.75 177.84,-561.08 177.84,-553.67"/>
<polygon fill="grey" stroke="grey" stroke-width="2" points="181.34,-553.93 177.84,-543.93 174.34,-553.93 181.34,-553.93"/>
</g>
<!-- 9 -->
<g id="node10" class="node">
<title>9</title>
<path fill="none" stroke="#56d8d0" stroke-width="2" d="M200.22,-684C200.22,-684 141.47,-684 141.47,-684 135.47,-684 129.47,-678 129.47,-672 129.47,-672 129.47,-660 129.47,-660 129.47,-654 135.47,-648 141.47,-648 141.47,-648 200.22,-648 200.22,-648 206.22,-648 212.22,-654 212.22,-660 212.22,-660 212.22,-672 212.22,-672 212.22,-678 206.22,-684 200.22,-684"/>
<text text-anchor="middle" x="170.84" y="-662.88" font-family="sans" font-size="10.00">ex_filter_bam</text>
</g>
<!-- 9&#45;&gt;8 -->
<g id="edge15" class="edge">
<title>9&#45;&gt;8</title>
<path fill="none" stroke="grey" stroke-width="2" d="M172.61,-647.34C173.27,-640.75 174.03,-633.08 174.78,-625.67"/>
<polygon fill="grey" stroke="grey" stroke-width="2" points="178.24,-626.21 175.75,-615.91 171.27,-625.52 178.24,-626.21"/>
</g>
<!-- 10 -->
<g id="node11" class="node">
<title>10</title>
<path fill="none" stroke="#56d873" stroke-width="2" d="M200.22,-756C200.22,-756 141.47,-756 141.47,-756 135.47,-756 129.47,-750 129.47,-744 129.47,-744 129.47,-732 129.47,-732 129.47,-726 135.47,-720 141.47,-720 141.47,-720 200.22,-720 200.22,-720 206.22,-720 212.22,-726 212.22,-732 212.22,-732 212.22,-744 212.22,-744 212.22,-750 206.22,-756 200.22,-756"/>
<text text-anchor="middle" x="170.84" y="-734.88" font-family="sans" font-size="10.00">ex_alignment</text>
</g>
<!-- 10&#45;&gt;9 -->
<g id="edge16" class="edge">
<title>10&#45;&gt;9</title>
<path fill="none" stroke="grey" stroke-width="2" d="M170.84,-719.34C170.84,-712.75 170.84,-705.08 170.84,-697.67"/>
<polygon fill="grey" stroke="grey" stroke-width="2" points="174.34,-697.93 170.84,-687.93 167.34,-697.93 174.34,-697.93"/>
</g>
<!-- 11 -->
<g id="node12" class="node">
<title>11</title>
<path fill="none" stroke="#56d892" stroke-width="2" d="M210.72,-828C210.72,-828 148.97,-828 148.97,-828 142.97,-828 136.97,-822 136.97,-816 136.97,-816 136.97,-804 136.97,-804 136.97,-798 142.97,-792 148.97,-792 148.97,-792 210.72,-792 210.72,-792 216.72,-792 222.72,-798 222.72,-804 222.72,-804 222.72,-816 222.72,-816 222.72,-822 216.72,-828 210.72,-828"/>
<text text-anchor="middle" x="179.84" y="-806.88" font-family="sans" font-size="10.00">ex_filter_fastq</text>
</g>
<!-- 11&#45;&gt;10 -->
<g id="edge17" class="edge">
<title>11&#45;&gt;10</title>
<path fill="none" stroke="grey" stroke-width="2" d="M177.57,-791.34C176.72,-784.75 175.74,-777.08 174.78,-769.67"/>
<polygon fill="grey" stroke="grey" stroke-width="2" points="178.28,-769.38 173.53,-759.9 171.33,-770.27 178.28,-769.38"/>
</g>
<!-- 12 -->
<g id="node13" class="node">
<title>12</title>
<path fill="none" stroke="#56d8a9" stroke-width="2" d="M209.59,-900C209.59,-900 150.09,-900 150.09,-900 144.09,-900 138.09,-894 138.09,-888 138.09,-888 138.09,-876 138.09,-876 138.09,-870 144.09,-864 150.09,-864 150.09,-864 209.59,-864 209.59,-864 215.59,-864 221.59,-870 221.59,-876 221.59,-876 221.59,-888 221.59,-888 221.59,-894 215.59,-900 209.59,-900"/>
<text text-anchor="middle" x="179.84" y="-878.88" font-family="sans" font-size="10.00">ex_trim_fastq</text>
</g>
<!-- 12&#45;&gt;11 -->
<g id="edge19" class="edge">
<title>12&#45;&gt;11</title>
<path fill="none" stroke="grey" stroke-width="2" d="M179.84,-863.34C179.84,-856.75 179.84,-849.08 179.84,-841.67"/>
<polygon fill="grey" stroke="grey" stroke-width="2" points="183.34,-841.93 179.84,-831.93 176.34,-841.93 183.34,-841.93"/>
</g>
<!-- 13 -->
<g id="node14" class="node">
<title>13</title>
<path fill="none" stroke="#d8bc56" stroke-width="2" d="M224.72,-972C224.72,-972 126.97,-972 126.97,-972 120.97,-972 114.97,-966 114.97,-960 114.97,-960 114.97,-948 114.97,-948 114.97,-942 120.97,-936 126.97,-936 126.97,-936 224.72,-936 224.72,-936 230.72,-936 236.72,-942 236.72,-948 236.72,-948 236.72,-960 236.72,-960 236.72,-966 230.72,-972 224.72,-972"/>
<text text-anchor="middle" x="175.84" y="-950.88" font-family="sans" font-size="10.00">ex_demultiplex_fastq</text>
</g>
<!-- 13&#45;&gt;12 -->
<g id="edge20" class="edge">
<title>13&#45;&gt;12</title>
<path fill="none" stroke="grey" stroke-width="2" d="M176.85,-935.34C177.23,-928.75 177.67,-921.08 178.09,-913.67"/>
<polygon fill="grey" stroke="grey" stroke-width="2" points="181.57,-914.11 178.65,-903.92 174.58,-913.71 181.57,-914.11"/>
</g>
<!-- 14 -->
<g id="node15" class="node">
<title>14</title>
<path fill="none" stroke="#5682d8" stroke-width="2" d="M386.34,-1044C386.34,-1044 283.34,-1044 283.34,-1044 277.34,-1044 271.34,-1038 271.34,-1032 271.34,-1032 271.34,-1020 271.34,-1020 271.34,-1014 277.34,-1008 283.34,-1008 283.34,-1008 386.34,-1008 386.34,-1008 392.34,-1008 398.34,-1014 398.34,-1020 398.34,-1020 398.34,-1032 398.34,-1032 398.34,-1038 392.34,-1044 386.34,-1044"/>
<text text-anchor="middle" x="334.84" y="-1022.88" font-family="sans" font-size="10.00">ex_extract_fastq_umis</text>
</g>
<!-- 14&#45;&gt;13 -->
<g id="edge21" class="edge">
<title>14&#45;&gt;13</title>
<path fill="none" stroke="grey" stroke-width="2" d="M294.31,-1007.15C274.29,-998.34 249.9,-987.61 228.47,-978.17"/>
<polygon fill="grey" stroke="grey" stroke-width="2" points="229.91,-974.98 219.35,-974.15 227.09,-981.39 229.91,-974.98"/>
</g>
<!-- 15 -->
<g id="node16" class="node">
<title>15</title>
<path fill="none" stroke="#d8cb56" stroke-width="2" d="M369.84,-1116C369.84,-1116 299.84,-1116 299.84,-1116 293.84,-1116 287.84,-1110 287.84,-1104 287.84,-1104 287.84,-1092 287.84,-1092 287.84,-1086 293.84,-1080 299.84,-1080 299.84,-1080 369.84,-1080 369.84,-1080 375.84,-1080 381.84,-1086 381.84,-1092 381.84,-1092 381.84,-1104 381.84,-1104 381.84,-1110 375.84,-1116 369.84,-1116"/>
<text text-anchor="middle" x="334.84" y="-1094.88" font-family="sans" font-size="10.00">complete_setup</text>
</g>
<!-- 15&#45;&gt;14 -->
<g id="edge23" class="edge">
<title>15&#45;&gt;14</title>
<path fill="none" stroke="grey" stroke-width="2" d="M334.84,-1079.34C334.84,-1072.75 334.84,-1065.08 334.84,-1057.67"/>
<polygon fill="grey" stroke="grey" stroke-width="2" points="338.34,-1057.93 334.84,-1047.93 331.34,-1057.93 338.34,-1057.93"/>
</g>
<!-- 33 -->
<g id="node34" class="node">
<title>33</title>
<path fill="none" stroke="#d88d56" stroke-width="2" d="M493.09,-1044C493.09,-1044 430.59,-1044 430.59,-1044 424.59,-1044 418.59,-1038 418.59,-1032 418.59,-1032 418.59,-1020 418.59,-1020 418.59,-1014 424.59,-1008 430.59,-1008 430.59,-1008 493.09,-1008 493.09,-1008 499.09,-1008 505.09,-1014 505.09,-1020 505.09,-1020 505.09,-1032 505.09,-1032 505.09,-1038 499.09,-1044 493.09,-1044"/>
<text text-anchor="middle" x="461.84" y="-1022.88" font-family="sans" font-size="10.00">ms_trim_fastq</text>
</g>
<!-- 15&#45;&gt;33 -->
<g id="edge47" class="edge">
<title>15&#45;&gt;33</title>
<path fill="none" stroke="grey" stroke-width="2" d="M367.22,-1079.15C382.74,-1070.6 401.56,-1060.22 418.32,-1050.99"/>
<polygon fill="grey" stroke="grey" stroke-width="2" points="419.81,-1054.17 426.87,-1046.27 416.43,-1048.04 419.81,-1054.17"/>
</g>
<!-- 16 -->
<g id="node17" class="node">
<title>16</title>
<path fill="none" stroke="#d87d56" stroke-width="2" d="M564.84,-1188C564.84,-1188 440.84,-1188 440.84,-1188 434.84,-1188 428.84,-1182 428.84,-1176 428.84,-1176 428.84,-1164 428.84,-1164 428.84,-1158 434.84,-1152 440.84,-1152 440.84,-1152 564.84,-1152 564.84,-1152 570.84,-1152 576.84,-1158 576.84,-1164 576.84,-1164 576.84,-1176 576.84,-1176 576.84,-1182 570.84,-1188 564.84,-1188"/>
<text text-anchor="middle" x="502.84" y="-1166.88" font-family="sans" font-size="10.00">ensure_pipeline_log_exists</text>
</g>
<!-- 16&#45;&gt;15 -->
<g id="edge25" class="edge">
<title>16&#45;&gt;15</title>
<path fill="none" stroke="grey" stroke-width="2" d="M460.01,-1151.15C438.67,-1142.26 412.62,-1131.41 389.82,-1121.91"/>
<polygon fill="grey" stroke="grey" stroke-width="2" points="391.25,-1118.71 380.68,-1118.1 388.56,-1125.18 391.25,-1118.71"/>
</g>
<!-- 17 -->
<g id="node18" class="node">
<title>17</title>
<path fill="none" stroke="#56d8b9" stroke-width="2" d="M398.84,-1188C398.84,-1188 268.84,-1188 268.84,-1188 262.84,-1188 256.84,-1182 256.84,-1176 256.84,-1176 256.84,-1164 256.84,-1164 256.84,-1158 262.84,-1152 268.84,-1152 268.84,-1152 398.84,-1152 398.84,-1152 404.84,-1152 410.84,-1158 410.84,-1164 410.84,-1164 410.84,-1176 410.84,-1176 410.84,-1182 404.84,-1188 398.84,-1188"/>
<text text-anchor="middle" x="333.84" y="-1166.88" font-family="sans" font-size="10.00">log_system_resource_usage</text>
</g>
<!-- 17&#45;&gt;15 -->
<g id="edge26" class="edge">
<title>17&#45;&gt;15</title>
<path fill="none" stroke="grey" stroke-width="2" d="M334.09,-1151.34C334.19,-1144.75 334.3,-1137.08 334.4,-1129.67"/>
<polygon fill="grey" stroke="grey" stroke-width="2" points="337.9,-1129.98 334.54,-1119.93 330.9,-1129.88 337.9,-1129.98"/>
</g>
<!-- 18 -->
<g id="node19" class="node">
<title>18</title>
<path fill="none" stroke="#569ad8" stroke-width="2" d="M226.47,-1188C226.47,-1188 43.22,-1188 43.22,-1188 37.22,-1188 31.22,-1182 31.22,-1176 31.22,-1176 31.22,-1164 31.22,-1164 31.22,-1158 37.22,-1152 43.22,-1152 43.22,-1152 226.47,-1152 226.47,-1152 232.47,-1152 238.47,-1158 238.47,-1164 238.47,-1164 238.47,-1176 238.47,-1176 238.47,-1182 232.47,-1188 226.47,-1188"/>
<text text-anchor="middle" x="134.84" y="-1166.88" font-family="sans" font-size="10.00">check_included_chromosomes_present</text>
</g>
<!-- 18&#45;&gt;15 -->
<g id="edge24" class="edge">
<title>18&#45;&gt;15</title>
<path fill="none" stroke="grey" stroke-width="2" d="M186.09,-1151.06C213.21,-1141.57 246.66,-1129.86 274.97,-1119.95"/>
<polygon fill="grey" stroke="grey" stroke-width="2" points="276.02,-1123.29 284.31,-1116.69 273.71,-1116.69 276.02,-1123.29"/>
</g>
<!-- 19 -->
<g id="node20" class="node">
<title>19</title>
<path fill="none" stroke="#56d0d8" stroke-width="2" d="M709.22,-1260C709.22,-1260 614.47,-1260 614.47,-1260 608.47,-1260 602.47,-1254 602.47,-1248 602.47,-1248 602.47,-1236 602.47,-1236 602.47,-1230 608.47,-1224 614.47,-1224 614.47,-1224 709.22,-1224 709.22,-1224 715.22,-1224 721.22,-1230 721.22,-1236 721.22,-1236 721.22,-1248 721.22,-1248 721.22,-1254 715.22,-1260 709.22,-1260"/>
<text text-anchor="middle" x="661.84" y="-1238.88" font-family="sans" font-size="10.00">samtools_index_files</text>
</g>
<!-- 19&#45;&gt;3 -->
<g id="edge8" class="edge">
<title>19&#45;&gt;3</title>
<path fill="none" stroke="grey" stroke-width="2" d="M601.7,-1240.04C450.74,-1237.07 64.82,-1225.81 21.84,-1188 -8.53,-1161.28 2.84,-1139.45 2.84,-1099 2.84,-1099 2.84,-1099 2.84,-377 2.84,-284.21 129.58,-251.9 209.07,-240.76"/>
<polygon fill="grey" stroke="grey" stroke-width="2" points="209.41,-244.24 218.87,-239.48 208.5,-237.3 209.41,-244.24"/>
</g>
<!-- 19&#45;&gt;18 -->
<g id="edge27" class="edge">
<title>19&#45;&gt;18</title>
<path fill="none" stroke="grey" stroke-width="2" d="M601.8,-1233.73C523.72,-1224.19 382.78,-1206.65 251.83,-1188.54"/>
<polygon fill="grey" stroke="grey" stroke-width="2" points="252.57,-1185.11 242.19,-1187.2 251.61,-1192.04 252.57,-1185.11"/>
</g>
<!-- 23 -->
<g id="node24" class="node">
<title>23</title>
<path fill="none" stroke="#d88d56" stroke-width="2" d="M796.47,-396C796.47,-396 697.22,-396 697.22,-396 691.22,-396 685.22,-390 685.22,-384 685.22,-384 685.22,-372 685.22,-372 685.22,-366 691.22,-360 697.22,-360 697.22,-360 796.47,-360 796.47,-360 802.47,-360 808.47,-366 808.47,-372 808.47,-372 808.47,-384 808.47,-384 808.47,-390 802.47,-396 796.47,-396"/>
<text text-anchor="middle" x="746.84" y="-374.88" font-family="sans" font-size="10.00">generate_include_bed</text>
</g>
<!-- 19&#45;&gt;23 -->
<g id="edge29" class="edge">
<title>19&#45;&gt;23</title>
<path fill="none" stroke="grey" stroke-width="2" d="M722.22,-1240.46C815.7,-1236.08 984.84,-1212.48 984.84,-1099 984.84,-1099 984.84,-1099 984.84,-521 984.84,-443.84 891.44,-407.63 821.66,-391.34"/>
<polygon fill="grey" stroke="grey" stroke-width="2" points="822.85,-388.02 812.33,-389.27 821.33,-394.85 822.85,-388.02"/>
</g>
<!-- 24 -->
<g id="node25" class="node">
<title>24</title>
<path fill="none" stroke="#d85656" stroke-width="2" d="M782.59,-468C782.59,-468 711.09,-468 711.09,-468 705.09,-468 699.09,-462 699.09,-456 699.09,-456 699.09,-444 699.09,-444 699.09,-438 705.09,-432 711.09,-432 711.09,-432 782.59,-432 782.59,-432 788.59,-432 794.59,-438 794.59,-444 794.59,-444 794.59,-456 794.59,-456 794.59,-462 788.59,-468 782.59,-468"/>
<text text-anchor="middle" x="746.84" y="-446.88" font-family="sans" font-size="10.00">combine_masks</text>
</g>
<!-- 19&#45;&gt;24 -->
<g id="edge33" class="edge">
<title>19&#45;&gt;24</title>
<path fill="none" stroke="grey" stroke-width="2" d="M721.93,-1237.23C805.55,-1228.37 946.84,-1198.64 946.84,-1099 946.84,-1099 946.84,-1099 946.84,-593 946.84,-523.92 866.54,-485.37 807.7,-466.4"/>
<polygon fill="grey" stroke="grey" stroke-width="2" points="808.99,-463.13 798.4,-463.53 806.93,-469.82 808.99,-463.13"/>
</g>
<!-- 25 -->
<g id="node26" class="node">
<title>25</title>
<path fill="none" stroke="#d86656" stroke-width="2" d="M906.59,-684C906.59,-684 721.09,-684 721.09,-684 715.09,-684 709.09,-678 709.09,-672 709.09,-672 709.09,-660 709.09,-660 709.09,-654 715.09,-648 721.09,-648 721.09,-648 906.59,-648 906.59,-648 912.59,-648 918.59,-654 918.59,-660 918.59,-660 918.59,-672 918.59,-672 918.59,-678 912.59,-684 906.59,-684"/>
<text text-anchor="middle" x="813.84" y="-662.88" font-family="sans" font-size="10.00">included_excluded_chromosomes_beds</text>
</g>
<!-- 19&#45;&gt;25 -->
<g id="edge34" class="edge">
<title>19&#45;&gt;25</title>
<path fill="none" stroke="grey" stroke-width="2" d="M686.75,-1223.2C717.52,-1198.93 765.84,-1152.32 765.84,-1099 765.84,-1099 765.84,-1099 765.84,-809 765.84,-768.2 783.85,-724.11 797.8,-696.06"/>
<polygon fill="grey" stroke="grey" stroke-width="2" points="800.79,-697.91 802.27,-687.42 794.57,-694.69 800.79,-697.91"/>
</g>
<!-- 26 -->
<g id="node27" class="node">
<title>26</title>
<path fill="none" stroke="#b6d856" stroke-width="2" d="M625.09,-540C625.09,-540 562.59,-540 562.59,-540 556.59,-540 550.59,-534 550.59,-528 550.59,-528 550.59,-516 550.59,-516 550.59,-510 556.59,-504 562.59,-504 562.59,-504 625.09,-504 625.09,-504 631.09,-504 637.09,-510 637.09,-516 637.09,-516 637.09,-528 637.09,-528 637.09,-534 631.09,-540 625.09,-540"/>
<text text-anchor="middle" x="593.84" y="-518.88" font-family="sans" font-size="10.00">ms_low_depth</text>
</g>
<!-- 19&#45;&gt;26 -->
<g id="edge36" class="edge">
<title>19&#45;&gt;26</title>
<path fill="none" stroke="grey" stroke-width="2" d="M654.67,-1223.06C650.8,-1212.89 646.14,-1199.87 642.84,-1188 586,-983.6 678.15,-888.19 548.84,-720 526.79,-691.32 494.94,-714.72 475.84,-684 444.65,-633.84 507.3,-579.1 552.66,-548.12"/>
<polygon fill="grey" stroke="grey" stroke-width="2" points="554.54,-551.07 560.94,-542.63 550.68,-545.24 554.54,-551.07"/>
</g>
<!-- 27 -->
<g id="node28" class="node">
<title>27</title>
<path fill="none" stroke="#59d856" stroke-width="2" d="M640.97,-612C640.97,-612 598.72,-612 598.72,-612 592.72,-612 586.72,-606 586.72,-600 586.72,-600 586.72,-588 586.72,-588 586.72,-582 592.72,-576 598.72,-576 598.72,-576 640.97,-576 640.97,-576 646.97,-576 652.97,-582 652.97,-588 652.97,-588 652.97,-600 652.97,-600 652.97,-606 646.97,-612 640.97,-612"/>
<text text-anchor="middle" x="619.84" y="-590.88" font-family="sans" font-size="10.00">ms_pileup</text>
</g>
<!-- 19&#45;&gt;27 -->
<g id="edge39" class="edge">
<title>19&#45;&gt;27</title>
<path fill="none" stroke="grey" stroke-width="2" d="M657.9,-1223.17C652.34,-1196.36 642.84,-1144.02 642.84,-1099 642.84,-1099 642.84,-1099 642.84,-737 642.84,-697.98 634.27,-653.69 627.6,-625.1"/>
<polygon fill="grey" stroke="grey" stroke-width="2" points="631.08,-624.62 625.32,-615.72 624.28,-626.27 631.08,-624.62"/>
</g>
<!-- 34 -->
<g id="node35" class="node">
<title>34</title>
<path fill="none" stroke="#d6d856" stroke-width="2" d="M746.34,-540C746.34,-540 667.34,-540 667.34,-540 661.34,-540 655.34,-534 655.34,-528 655.34,-528 655.34,-516 655.34,-516 655.34,-510 661.34,-504 667.34,-504 667.34,-504 746.34,-504 746.34,-504 752.34,-504 758.34,-510 758.34,-516 758.34,-516 758.34,-528 758.34,-528 758.34,-534 752.34,-540 746.34,-540"/>
<text text-anchor="middle" x="706.84" y="-518.88" font-family="sans" font-size="10.00">ms_germline_risk</text>
</g>
<!-- 19&#45;&gt;34 -->
<g id="edge49" class="edge">
<title>19&#45;&gt;34</title>
<path fill="none" stroke="grey" stroke-width="2" d="M665.78,-1223.17C671.34,-1196.36 680.84,-1144.02 680.84,-1099 680.84,-1099 680.84,-1099 680.84,-665 680.84,-625.84 690.53,-581.58 698.08,-553.04"/>
<polygon fill="grey" stroke="grey" stroke-width="2" points="701.38,-554.23 700.65,-543.66 694.63,-552.38 701.38,-554.23"/>
</g>
<!-- 20 -->
<g id="node21" class="node">
<title>20</title>
<path fill="none" stroke="#56d8d8" stroke-width="2" d="M241.72,-1044C241.72,-1044 101.97,-1044 101.97,-1044 95.97,-1044 89.97,-1038 89.97,-1032 89.97,-1032 89.97,-1020 89.97,-1020 89.97,-1014 95.97,-1008 101.97,-1008 101.97,-1008 241.72,-1008 241.72,-1008 247.72,-1008 253.72,-1014 253.72,-1020 253.72,-1020 253.72,-1032 253.72,-1032 253.72,-1038 247.72,-1044 241.72,-1044"/>
<text text-anchor="middle" x="171.84" y="-1022.88" font-family="sans" font-size="10.00">ex_generate_demux_adaptors</text>
</g>
<!-- 20&#45;&gt;13 -->
<g id="edge22" class="edge">
<title>20&#45;&gt;13</title>
<path fill="none" stroke="grey" stroke-width="2" d="M172.85,-1007.34C173.23,-1000.75 173.67,-993.08 174.09,-985.67"/>
<polygon fill="grey" stroke="grey" stroke-width="2" points="177.57,-986.11 174.65,-975.92 170.58,-985.71 177.57,-986.11"/>
</g>
<!-- 21 -->
<g id="node22" class="node">
<title>21</title>
<path fill="none" stroke="#d8ac56" stroke-width="2" d="M362.59,-972C362.59,-972 267.09,-972 267.09,-972 261.09,-972 255.09,-966 255.09,-960 255.09,-960 255.09,-948 255.09,-948 255.09,-942 261.09,-936 267.09,-936 267.09,-936 362.59,-936 362.59,-936 368.59,-936 374.59,-942 374.59,-948 374.59,-948 374.59,-960 374.59,-960 374.59,-966 368.59,-972 362.59,-972"/>
<text text-anchor="middle" x="314.84" y="-950.88" font-family="sans" font-size="10.00">bwamem_index_files</text>
</g>
<!-- 21&#45;&gt;4 -->
<g id="edge9" class="edge">
<title>21&#45;&gt;4</title>
<path fill="none" stroke="grey" stroke-width="2" d="M296.69,-935.12C288.3,-925.58 279.24,-913.12 274.84,-900 269.76,-884.83 274.75,-880 274.84,-864 275.51,-744.44 277.84,-714.56 277.84,-595 277.84,-595 277.84,-595 277.84,-449 277.84,-410.62 275.63,-366.45 273.89,-337.71"/>
<polygon fill="grey" stroke="grey" stroke-width="2" points="277.4,-337.7 273.27,-327.94 270.41,-338.14 277.4,-337.7"/>
</g>
<!-- 21&#45;&gt;10 -->
<g id="edge18" class="edge">
<title>21&#45;&gt;10</title>
<path fill="none" stroke="grey" stroke-width="2" d="M254.2,-937.57C201.46,-923.86 132.84,-905.21 128.84,-900 99.66,-861.89 111.8,-837.24 127.84,-792 131.11,-782.79 136.74,-774.01 142.86,-766.34"/>
<polygon fill="grey" stroke="grey" stroke-width="2" points="145.41,-768.74 149.36,-758.91 140.14,-764.14 145.41,-768.74"/>
</g>
<!-- 31 -->
<g id="node32" class="node">
<title>31</title>
<path fill="none" stroke="#d8ac56" stroke-width="2" d="M495.72,-900C495.72,-900 433.97,-900 433.97,-900 427.97,-900 421.97,-894 421.97,-888 421.97,-888 421.97,-876 421.97,-876 421.97,-870 427.97,-864 433.97,-864 433.97,-864 495.72,-864 495.72,-864 501.72,-864 507.72,-870 507.72,-876 507.72,-876 507.72,-888 507.72,-888 507.72,-894 501.72,-900 495.72,-900"/>
<text text-anchor="middle" x="464.84" y="-878.88" font-family="sans" font-size="10.00">ms_alignment</text>
</g>
<!-- 21&#45;&gt;31 -->
<g id="edge44" class="edge">
<title>21&#45;&gt;31</title>
<path fill="none" stroke="grey" stroke-width="2" d="M353.08,-935.15C371.79,-926.43 394.54,-915.81 414.63,-906.43"/>
<polygon fill="grey" stroke="grey" stroke-width="2" points="416.09,-909.61 423.67,-902.21 413.13,-903.27 416.09,-909.61"/>
</g>
<!-- 22 -->
<g id="node23" class="node">
<title>22</title>
<path fill="none" stroke="#d8cb56" stroke-width="2" d="M392.34,-900C392.34,-900 295.34,-900 295.34,-900 289.34,-900 283.34,-894 283.34,-888 283.34,-888 283.34,-876 283.34,-876 283.34,-870 289.34,-864 295.34,-864 295.34,-864 392.34,-864 392.34,-864 398.34,-864 404.34,-870 404.34,-876 404.34,-876 404.34,-888 404.34,-888 404.34,-894 398.34,-900 392.34,-900"/>
<text text-anchor="middle" x="343.84" y="-878.88" font-family="sans" font-size="10.00">picard_sequence_dict</text>
</g>
<!-- 22&#45;&gt;3 -->
<g id="edge5" class="edge">
<title>22&#45;&gt;3</title>
<path fill="none" stroke="grey" stroke-width="2" d="M343.84,-863.07C343.84,-836.13 343.84,-783.62 343.84,-739 343.84,-739 343.84,-739 343.84,-377 343.84,-336.55 344.16,-323.54 324.84,-288 319.63,-278.41 312.14,-269.41 304.43,-261.65"/>
<polygon fill="grey" stroke="grey" stroke-width="2" points="306.94,-259.21 297.25,-254.91 302.15,-264.31 306.94,-259.21"/>
</g>
<!-- 22&#45;&gt;8 -->
<g id="edge14" class="edge">
<title>22&#45;&gt;8</title>
<path fill="none" stroke="grey" stroke-width="2" d="M335.86,-863.09C317.74,-823.11 271.13,-724.15 220.84,-648 215.21,-639.48 208.5,-630.68 202.07,-622.77"/>
<polygon fill="grey" stroke="grey" stroke-width="2" points="204.92,-620.73 195.83,-615.29 199.55,-625.21 204.92,-620.73"/>
</g>
<!-- 30 -->
<g id="node31" class="node">
<title>30</title>
<path fill="none" stroke="#78d856" stroke-width="2" d="M512.59,-828C512.59,-828 417.09,-828 417.09,-828 411.09,-828 405.09,-822 405.09,-816 405.09,-816 405.09,-804 405.09,-804 405.09,-798 411.09,-792 417.09,-792 417.09,-792 512.59,-792 512.59,-792 518.59,-792 524.59,-798 524.59,-804 524.59,-804 524.59,-816 524.59,-816 524.59,-822 518.59,-828 512.59,-828"/>
<text text-anchor="middle" x="464.84" y="-806.88" font-family="sans" font-size="10.00">ms_add_read_groups</text>
</g>
<!-- 22&#45;&gt;30 -->
<g id="edge42" class="edge">
<title>22&#45;&gt;30</title>
<path fill="none" stroke="grey" stroke-width="2" d="M374.69,-863.15C389.34,-854.68 407.07,-844.42 422.92,-835.25"/>
<polygon fill="grey" stroke="grey" stroke-width="2" points="424.53,-838.37 431.43,-830.33 421.02,-832.31 424.53,-838.37"/>
</g>
<!-- 23&#45;&gt;1 -->
<g id="edge2" class="edge">
<title>23&#45;&gt;1</title>
<path fill="none" stroke="grey" stroke-width="2" d="M731.52,-359.11C690.01,-310.66 575.2,-176.64 525.4,-118.5"/>
<polygon fill="grey" stroke="grey" stroke-width="2" points="528.29,-116.5 519.13,-111.18 522.98,-121.05 528.29,-116.5"/>
</g>
<!-- 24&#45;&gt;23 -->
<g id="edge28" class="edge">
<title>24&#45;&gt;23</title>
<path fill="none" stroke="grey" stroke-width="2" d="M746.84,-431.34C746.84,-424.75 746.84,-417.08 746.84,-409.67"/>
<polygon fill="grey" stroke="grey" stroke-width="2" points="750.34,-409.93 746.84,-399.93 743.34,-409.93 750.34,-409.93"/>
</g>
<!-- 25&#45;&gt;24 -->
<g id="edge31" class="edge">
<title>25&#45;&gt;24</title>
<path fill="none" stroke="grey" stroke-width="2" d="M809.43,-647.43C801.82,-617.65 785.34,-555.47 767.84,-504 765.27,-496.44 762.23,-488.37 759.28,-480.88"/>
<polygon fill="grey" stroke="grey" stroke-width="2" points="762.6,-479.76 755.61,-471.79 756.11,-482.38 762.6,-479.76"/>
</g>
<!-- 25&#45;&gt;27 -->
<g id="edge37" class="edge">
<title>25&#45;&gt;27</title>
<path fill="none" stroke="grey" stroke-width="2" d="M764.13,-647.06C733.88,-636.15 695.5,-622.3 665.92,-611.63"/>
<polygon fill="grey" stroke="grey" stroke-width="2" points="667.28,-608.4 656.69,-608.29 664.91,-614.98 667.28,-608.4"/>
</g>
<!-- 26&#45;&gt;24 -->
<g id="edge32" class="edge">
<title>26&#45;&gt;24</title>
<path fill="none" stroke="grey" stroke-width="2" d="M632.85,-503.15C652.01,-494.38 675.36,-483.71 695.91,-474.3"/>
<polygon fill="grey" stroke="grey" stroke-width="2" points="697.25,-477.54 704.89,-470.19 694.34,-471.17 697.25,-477.54"/>
</g>
<!-- 27&#45;&gt;26 -->
<g id="edge35" class="edge">
<title>27&#45;&gt;26</title>
<path fill="none" stroke="grey" stroke-width="2" d="M613.28,-575.34C610.78,-568.59 607.84,-560.69 605.03,-553.11"/>
<polygon fill="grey" stroke="grey" stroke-width="2" points="608.31,-551.9 601.54,-543.74 601.75,-554.33 608.31,-551.9"/>
</g>
<!-- 27&#45;&gt;34 -->
<g id="edge48" class="edge">
<title>27&#45;&gt;34</title>
<path fill="none" stroke="grey" stroke-width="2" d="M641.8,-575.34C651.71,-567.36 663.63,-557.77 674.54,-548.99"/>
<polygon fill="grey" stroke="grey" stroke-width="2" points="676.64,-551.8 682.23,-542.8 672.25,-546.34 676.64,-551.8"/>
</g>
<!-- 28 -->
<g id="node29" class="node">
<title>28</title>
<path fill="none" stroke="#565bd8" stroke-width="2" d="M602.47,-684C602.47,-684 497.22,-684 497.22,-684 491.22,-684 485.22,-678 485.22,-672 485.22,-672 485.22,-660 485.22,-660 485.22,-654 491.22,-648 497.22,-648 497.22,-648 602.47,-648 602.47,-648 608.47,-648 614.47,-654 614.47,-660 614.47,-660 614.47,-672 614.47,-672 614.47,-678 608.47,-684 602.47,-684"/>
<text text-anchor="middle" x="549.84" y="-662.88" font-family="sans" font-size="10.00">ms_remove_duplicates</text>
</g>
<!-- 28&#45;&gt;27 -->
<g id="edge38" class="edge">
<title>28&#45;&gt;27</title>
<path fill="none" stroke="grey" stroke-width="2" d="M567.51,-647.34C575.16,-639.69 584.29,-630.56 592.76,-622.08"/>
<polygon fill="grey" stroke="grey" stroke-width="2" points="595.2,-624.59 599.8,-615.04 590.25,-619.64 595.2,-624.59"/>
</g>
<!-- 29 -->
<g id="node30" class="node">
<title>29</title>
<path fill="none" stroke="#56d86b" stroke-width="2" d="M527.47,-756C527.47,-756 404.22,-756 404.22,-756 398.22,-756 392.22,-750 392.22,-744 392.22,-744 392.22,-732 392.22,-732 392.22,-726 398.22,-720 404.22,-720 404.22,-720 527.47,-720 527.47,-720 533.47,-720 539.47,-726 539.47,-732 539.47,-732 539.47,-744 539.47,-744 539.47,-750 533.47,-756 527.47,-756"/>
<text text-anchor="middle" x="465.84" y="-734.88" font-family="sans" font-size="10.00">ms_add_mate_information</text>
</g>
<!-- 29&#45;&gt;28 -->
<g id="edge40" class="edge">
<title>29&#45;&gt;28</title>
<path fill="none" stroke="grey" stroke-width="2" d="M487.04,-719.34C496.61,-711.36 508.12,-701.77 518.65,-692.99"/>
<polygon fill="grey" stroke="grey" stroke-width="2" points="520.59,-695.93 526.03,-686.84 516.11,-690.55 520.59,-695.93"/>
</g>
<!-- 30&#45;&gt;29 -->
<g id="edge41" class="edge">
<title>30&#45;&gt;29</title>
<path fill="none" stroke="grey" stroke-width="2" d="M465.09,-791.34C465.19,-784.75 465.3,-777.08 465.4,-769.67"/>
<polygon fill="grey" stroke="grey" stroke-width="2" points="468.9,-769.98 465.54,-759.93 461.9,-769.88 468.9,-769.98"/>
</g>
<!-- 31&#45;&gt;30 -->
<g id="edge43" class="edge">
<title>31&#45;&gt;30</title>
<path fill="none" stroke="grey" stroke-width="2" d="M464.84,-863.34C464.84,-856.75 464.84,-849.08 464.84,-841.67"/>
<polygon fill="grey" stroke="grey" stroke-width="2" points="468.34,-841.93 464.84,-831.93 461.34,-841.93 468.34,-841.93"/>
</g>
<!-- 32 -->
<g id="node33" class="node">
<title>32</title>
<path fill="none" stroke="#56d863" stroke-width="2" d="M494.22,-972C494.22,-972 429.47,-972 429.47,-972 423.47,-972 417.47,-966 417.47,-960 417.47,-960 417.47,-948 417.47,-948 417.47,-942 423.47,-936 429.47,-936 429.47,-936 494.22,-936 494.22,-936 500.22,-936 506.22,-942 506.22,-948 506.22,-948 506.22,-960 506.22,-960 506.22,-966 500.22,-972 494.22,-972"/>
<text text-anchor="middle" x="461.84" y="-950.88" font-family="sans" font-size="10.00">ms_filter_fastq</text>
</g>
<!-- 32&#45;&gt;31 -->
<g id="edge45" class="edge">
<title>32&#45;&gt;31</title>
<path fill="none" stroke="grey" stroke-width="2" d="M462.6,-935.34C462.88,-928.75 463.21,-921.08 463.53,-913.67"/>
<polygon fill="grey" stroke="grey" stroke-width="2" points="467.01,-914.07 463.94,-903.93 460.02,-913.77 467.01,-914.07"/>
</g>
<!-- 33&#45;&gt;32 -->
<g id="edge46" class="edge">
<title>33&#45;&gt;32</title>
<path fill="none" stroke="grey" stroke-width="2" d="M461.84,-1007.34C461.84,-1000.75 461.84,-993.08 461.84,-985.67"/>
<polygon fill="grey" stroke="grey" stroke-width="2" points="465.34,-985.93 461.84,-975.93 458.34,-985.93 465.34,-985.93"/>
</g>
<!-- 34&#45;&gt;24 -->
<g id="edge30" class="edge">
<title>34&#45;&gt;24</title>
<path fill="none" stroke="grey" stroke-width="2" d="M716.94,-503.34C720.98,-496.26 725.74,-487.92 730.27,-480"/>
<polygon fill="grey" stroke="grey" stroke-width="2" points="733.19,-481.95 735.11,-471.53 727.11,-478.48 733.19,-481.95"/>
</g>
</g>
</svg>
